{"asset":{"version":"2.0","generator":"THREE.GLTFExporter"},"scenes":[{"name":"AuxScene","nodes":[3]}],"scene":0,"nodes":[{"name":"Test_Export","extras":{"name":"Test Export"},"mesh":0},{"name":"target","children":[0]},{"matrix":[0.05,0,0,0,0,0.05,0,0,0,0,0.05,0,1.1017249584198,2.2379048109054565,-0.6371749877929688,1],"children":[1]},{"matrix":[-0.04895939979360975,0,0.9988007695090392,0,0,1,0,0,-0.9988007695090392,0,-0.04895939979360975,0,0,0,0,1],"children":[2]}],"bufferViews":[{"buffer":0,"byteOffset":0,"byteLength":62656,"target":34962,"byteStride":16},{"buffer":0,"byteOffset":62656,"byteLength":46992,"target":34962,"byteStride":12},{"buffer":0,"byteOffset":109648,"byteLength":46992,"target":34962,"byteStride":12},{"buffer":0,"byteOffset":156640,"byteLength":81696,"target":34963}],"buffers":[{"byteLength":238336,"uri":"data:application/octet-stream;base64,"}],"accessors":[{"bufferView":0,"componentType":5126,"count":3916,"max":[0,0.7141000032424927,0.0925000011920929,1],"min":[0,0.713814377784729,0.09246300160884857,1],"type":"VEC4"},{"bufferView":1,"componentType":5126,"count":3916,"max":[0.9992775321006775,0.9991446137428284,0.9994930028915405],"min":[-0.9992775321006775,-0.9991446137428284,-0.9994930028915405],"type":"VEC3"},{"bufferView":2,"componentType":5126,"count":3916,"max":[-5.516086578369141,6.810282230377197,19.080318450927734],"min":[-34.32301330566406,-29.334814071655273,-4.468153476715088],"type":"VEC3"},{"bufferView":3,"componentType":5125,"count":20424,"max":[3915],"min":[0],"type":"SCALAR"}],"materials":[{"pbrMetallicRoughness":{"metallicFactor":0,"roughnessFactor":0.2},"doubleSided":true,"name":"Test Export"}],"meshes":[{"primitives":[{"mode":4,"attributes":{"COLOR_0":0,"NORMAL":1,"POSITION":2},"indices":3,"material":0}]}]}